<svg height='100px' width='100px'  fill="#FFFFFF" xmlns="http://www.w3.org/2000/svg" data-name="Layer 1" viewBox="0 0 64 64" x="0px" y="0px"><title>team_7</title><path d="M32,6.67a9.68,9.68,0,1,0,9.67,9.68A9.69,9.69,0,0,0,32,6.67ZM32,22a5.68,5.68,0,1,1,5.67-5.67A5.67,5.67,0,0,1,32,22Zm12.83-8.27a7.43,7.43,0,1,0,7.42-7.42A7.43,7.43,0,0,0,44.83,13.75Zm10.85,0a3.43,3.43,0,1,1-3.43-3.42A3.43,3.43,0,0,1,55.68,13.75ZM64,35V47.67a2,2,0,0,1-4,0V35.07a7.8,7.8,0,0,0-15.41-.47,16.75,16.75,0,0,1,4.09,9.23,1.55,1.55,0,0,1,0,.22V55.67a2,2,0,0,1-4,0V44.16a12.78,12.78,0,0,0-25.38,0V55.67a2,2,0,0,1-4,0V44.05a1.55,1.55,0,0,1,0-.22,16.75,16.75,0,0,1,4.09-9.23A7.8,7.8,0,0,0,4,35.07v12.6a2,2,0,0,1-4,0V35a1.7,1.7,0,0,1,0-.22,11.81,11.81,0,0,1,22.72-3,16.7,16.7,0,0,1,18.54,0,11.81,11.81,0,0,1,22.72,3A1.7,1.7,0,0,1,64,35ZM4.32,14.75a7.43,7.43,0,1,0,7.43-7.42A7.43,7.43,0,0,0,4.32,14.75Zm10.85,0a3.43,3.43,0,1,1-3.42-3.42A3.42,3.42,0,0,1,15.17,14.75Z"></path></svg>